grf
version=1
nRows=11
nColumns=37
inDegrees=no
endheader
time	ground_force_1_vx	ground_force_1_vy	ground_force_1_vz	ground_force_1_px	ground_force_1_py	ground_force_1_pz	ground_moment_1_mx	ground_moment_1_my	ground_moment_1_mz	ground_force_2_vx	ground_force_2_vy	ground_force_2_vz	ground_force_2_px	ground_force_2_py	ground_force_2_pz	ground_moment_2_mx	ground_moment_2_my	ground_moment_2_mz	ground_force_3_vx	ground_force_3_vy	ground_force_3_vz	ground_force_3_px	ground_force_3_py	ground_force_3_pz	ground_moment_3_mx	ground_moment_3_my	ground_moment_3_mz	ground_force_4_vx	ground_force_4_vy	ground_force_4_vz	ground_force_4_px	ground_force_4_py	ground_force_4_pz	ground_moment_4_mx	ground_moment_4_my	ground_moment_4_mz
      1.63000000	      0.00000000	     -0.00000000	      0.00000000	      0.00000000	      0.00000000	      0.00000000	      0.00000000	      0.00000000	      0.00000000	      7.74331951	      7.66559649	   -289.46505737	   -302.42145551	  -1164.13609731	      0.00000000	      0.00000000	      0.00000000	   1259.18322772	     -7.75327522	    -17.84098019	   -330.92553711	   -295.90886177	   -699.42698165	      0.00000000	     -0.00000000	     -0.00000000	  -4529.34986810	      0.00000000	     -0.00000000	      0.00000000	      0.00000000	      0.00000000	      0.00000000	      0.00000000	      0.00000000	      0.00000000
      1.64000000	      0.00000000	     -0.00000000	      0.00000000	      0.00000000	      0.00000000	      0.00000000	      0.00000000	      0.00000000	      0.00000000	      7.76131439	      7.95088148	   -289.82037354	   -301.56178259	  -1164.07496456	      0.00000000	      0.00000000	      0.00000000	   1414.83650294	     -7.29241922	    -16.94068495	   -330.08334351	   -296.34950761	   -699.75096286	      0.00000000	      0.00000000	     -0.00000000	  -4403.00810849	      0.00000000	     -0.00000000	      0.00000000	      0.00000000	      0.00000000	      0.00000000	      0.00000000	      0.00000000	      0.00000000
      1.65000000	      0.00000000	     -0.00000000	      0.00000000	      0.00000000	      0.00000000	      0.00000000	      0.00000000	      0.00000000	      0.00000000	      7.93973541	      8.19999695	   -291.24816895	   -301.26720133	  -1165.44688871	      0.00000000	      0.00000000	      0.00000000	   1371.91683596	     -7.02488396	    -15.84625213	   -329.60577393	   -296.58219762	   -700.32878389	      0.00000000	      0.00000000	     -0.00000000	  -4336.78800966	      0.00000000	     -0.00000000	      0.00000000	      0.00000000	      0.00000000	      0.00000000	      0.00000000	      0.00000000	      0.00000000
      1.66000000	      0.00000000	     -0.00000000	      0.00000000	      0.00000000	      0.00000000	      0.00000000	      0.00000000	      0.00000000	      0.00000000	      7.42081165	      8.34560871	   -292.43298340	   -302.66024576	  -1164.23862013	      0.00000000	      0.00000000	      0.00000000	   1366.07010242	     -6.35216305	    -15.68639918	   -329.80123901	   -297.18123519	   -700.67551001	      0.00000000	      0.00000000	     -0.00000000	  -4305.54869819	      0.00000000	     -0.00000000	      0.00000000	      0.00000000	      0.00000000	      0.00000000	      0.00000000	      0.00000000	      0.00000000
      1.67000000	      0.00000000	     -0.00000000	      0.00000000	      0.00000000	      0.00000000	      0.00000000	      0.00000000	      0.00000000	      0.00000000	      6.56332350	      8.88123894	   -293.63125610	   -301.37262788	  -1164.09867675	      0.00000000	      0.00000000	      0.00000000	   1472.09908239	     -6.22871991	    -15.36797306	   -330.58398438	   -298.00393853	   -700.02380975	      0.00000000	      0.00000000	     -0.00000000	  -4038.49434710	      0.00000000	     -0.00000000	      0.00000000	      0.00000000	      0.00000000	      0.00000000	      0.00000000	      0.00000000	      0.00000000
      1.68000000	      0.00000000	     -0.00000000	      0.00000000	      0.00000000	      0.00000000	      0.00000000	      0.00000000	      0.00000000	      0.00000000	      5.69006205	      9.51756001	   -297.17803955	   -300.67569863	  -1165.43962403	      0.00000000	      0.00000000	      0.00000000	   1414.39339008	     -6.03233401	    -14.61142895	   -330.11483765	   -298.32766059	   -701.82363618	      0.00000000	      0.00000000	     -0.00000000	  -4188.37302384	      0.00000000	     -0.00000000	      0.00000000	      0.00000000	      0.00000000	      0.00000000	      0.00000000	      0.00000000	      0.00000000
      1.69000000	      0.00000000	     -0.00000000	      0.00000000	      0.00000000	      0.00000000	      0.00000000	      0.00000000	      0.00000000	      0.00000000	      5.26808453	     10.53707790	   -297.79025269	   -300.23858441	  -1166.29984358	      0.00000000	      0.00000000	      0.00000000	   1567.58769668	     -5.47602861	    -14.69583201	   -331.38031006	   -297.85104538	   -700.62685440	      0.00000000	      0.00000000	     -0.00000000	  -4252.84375716	      0.00000000	     -0.00000000	      0.00000000	      0.00000000	      0.00000000	      0.00000000	      0.00000000	      0.00000000	      0.00000000
      1.70000000	      0.00000000	     -0.00000000	      0.00000000	      0.00000000	      0.00000000	      0.00000000	      0.00000000	      0.00000000	      0.00000000	      4.03445005	     11.00691795	   -298.22091675	   -300.09508864	  -1164.92857607	      0.00000000	      0.00000000	      0.00000000	   1502.04993324	     -5.76620169	    -15.25992845	   -332.39233398	   -297.36985818	   -700.36765470	      0.00000000	      0.00000000	     -0.00000000	  -4178.48191726	      0.00000000	     -0.00000000	      0.00000000	      0.00000000	      0.00000000	      0.00000000	      0.00000000	      0.00000000	      0.00000000
      1.71000000	      0.00000000	     -0.00000000	      0.00000000	      0.00000000	      0.00000000	      0.00000000	      0.00000000	      0.00000000	      0.00000000	      3.21762371	     10.92255497	   -299.30386353	   -299.99722268	  -1164.17786787	      0.00000000	      0.00000000	      0.00000000	   1574.12515214	     -6.85916871	    -14.92636460	   -333.22567749	   -296.48036420	   -700.28289590	      0.00000000	      0.00000000	     -0.00000000	  -4065.02645937	      0.00000000	     -0.00000000	      0.00000000	      0.00000000	      0.00000000	      0.00000000	      0.00000000	      0.00000000	      0.00000000
      1.72000000	      0.00000000	     -0.00000000	      0.00000000	      0.00000000	      0.00000000	      0.00000000	      0.00000000	      0.00000000	      0.00000000	      3.15669489	     11.20291424	   -301.91433716	   -299.98482682	  -1165.01476358	      0.00000000	      0.00000000	      0.00000000	   1645.70441823	     -7.31505647	    -14.21979109	   -332.31213379	   -296.62711834	   -701.08161970	      0.00000000	      0.00000000	     -0.00000000	  -4102.67850724	      0.00000000	     -0.00000000	      0.00000000	      0.00000000	      0.00000000	      0.00000000	      0.00000000	      0.00000000	      0.00000000
      1.73000000	      0.00000000	     -0.00000000	      0.00000000	      0.00000000	      0.00000000	      0.00000000	      0.00000000	      0.00000000	      0.00000000	      3.52674007	     11.55279732	   -304.87680054	   -299.86152303	  -1165.35799212	      0.00000000	      0.00000000	      0.00000000	   1621.66374150	     -7.08350958	    -13.90639083	   -331.82794189	   -295.62631117	   -700.56865096	      0.00000000	      0.00000000	     -0.00000000	  -4105.64977664	      0.00000000	     -0.00000000	      0.00000000	      0.00000000	      0.00000000	      0.00000000	      0.00000000	      0.00000000	      0.00000000
